<?xml version="1.0" encoding="utf-8"?>
<svg xmlns="http://www.w3.org/2000/svg" viewBox="0 0 264 264">
<rect width="100%" height="100%" fill="#fff" />
<g fill="#000">
<path d="M96 16h8v8h-8zM136 16h8v8h-8zM144 16h8v8h-8zM160 16h8v8h-8zM80 24h8v8h-8zM96 24h8v8h-8zM104 24h8v8h-8zM112 24h8v8h-8zM120 24h8v8h-8zM128 24h8v8h-8zM144 24h8v8h-8zM152 24h8v8h-8zM176 24h8v8h-8zM80 32h8v8h-8zM88 32h8v8h-8zM120 32h8v8h-8zM136 32h8v8h-8zM80 40h8v8h-8zM96 40h8v8h-8zM104 40h8v8h-8zM112 40h8v8h-8zM144 40h8v8h-8zM152 40h8v8h-8zM160 40h8v8h-8zM168 40h8v8h-8zM176 40h8v8h-8zM96 48h8v8h-8zM104 48h8v8h-8zM136 48h8v8h-8zM144 48h8v8h-8zM152 48h8v8h-8zM160 48h8v8h-8zM168 48h8v8h-8zM176 48h8v8h-8zM112 56h8v8h-8zM136 56h8v8h-8zM152 56h8v8h-8zM80 64h8v8h-8zM96 64h8v8h-8zM112 64h8v8h-8zM128 64h8v8h-8zM144 64h8v8h-8zM160 64h8v8h-8zM176 64h8v8h-8zM80 72h8v8h-8zM88 72h8v8h-8zM112 72h8v8h-8zM128 72h8v8h-8zM136 72h8v8h-8zM144 72h8v8h-8zM168 72h8v8h-8zM176 72h8v8h-8zM16 80h8v8h-8zM64 80h8v8h-8zM80 80h8v8h-8zM104 80h8v8h-8zM112 80h8v8h-8zM144 80h8v8h-8zM152 80h8v8h-8zM168 80h8v8h-8zM184 80h8v8h-8zM192 80h8v8h-8zM216 80h8v8h-8zM224 80h8v8h-8zM232 80h8v8h-8zM16 88h8v8h-8zM24 88h8v8h-8zM32 88h8v8h-8zM40 88h8v8h-8zM48 88h8v8h-8zM56 88h8v8h-8zM72 88h8v8h-8zM80 88h8v8h-8zM88 88h8v8h-8zM96 88h8v8h-8zM104 88h8v8h-8zM112 88h8v8h-8zM120 88h8v8h-8zM144 88h8v8h-8zM168 88h8v8h-8zM176 88h8v8h-8zM184 88h8v8h-8zM208 88h8v8h-8zM224 88h8v8h-8zM232 88h8v8h-8zM16 96h8v8h-8zM56 96h8v8h-8zM64 96h8v8h-8zM72 96h8v8h-8zM80 96h8v8h-8zM96 96h8v8h-8zM120 96h8v8h-8zM128 96h8v8h-8zM136 96h8v8h-8zM144 96h8v8h-8zM152 96h8v8h-8zM160 96h8v8h-8zM24 104h8v8h-8zM56 104h8v8h-8zM72 104h8v8h-8zM80 104h8v8h-8zM88 104h8v8h-8zM104 104h8v8h-8zM120 104h8v8h-8zM168 104h8v8h-8zM200 104h8v8h-8zM216 104h8v8h-8zM24 112h8v8h-8zM40 112h8v8h-8zM56 112h8v8h-8zM64 112h8v8h-8zM72 112h8v8h-8zM80 112h8v8h-8zM104 112h8v8h-8zM112 112h8v8h-8zM120 112h8v8h-8zM136 112h8v8h-8zM144 112h8v8h-8zM168 112h8v8h-8zM176 112h8v8h-8zM184 112h8v8h-8zM192 112h8v8h-8zM200 112h8v8h-8zM240 112h8v8h-8zM16 120h8v8h-8zM40 120h8v8h-8zM72 120h8v8h-8zM88 120h8v8h-8zM96 120h8v8h-8zM104 120h8v8h-8zM112 120h8v8h-8zM144 120h8v8h-8zM152 120h8v8h-8zM160 120h8v8h-8zM168 120h8v8h-8zM176 120h8v8h-8zM192 120h8v8h-8zM200 120h8v8h-8zM208 120h8v8h-8zM232 120h8v8h-8zM240 120h8v8h-8zM24 128h8v8h-8zM40 128h8v8h-8zM48 128h8v8h-8zM56 128h8v8h-8zM64 128h8v8h-8zM72 128h8v8h-8zM80 128h8v8h-8zM104 128h8v8h-8zM112 128h8v8h-8zM152 128h8v8h-8zM176 128h8v8h-8zM192 128h8v8h-8zM200 128h8v8h-8zM216 128h8v8h-8zM224 128h8v8h-8zM16 136h8v8h-8zM24 136h8v8h-8zM40 136h8v8h-8zM56 136h8v8h-8zM80 136h8v8h-8zM104 136h8v8h-8zM136 136h8v8h-8zM200 136h8v8h-8zM224 136h8v8h-8zM240 136h8v8h-8zM16 144h8v8h-8zM32 144h8v8h-8zM48 144h8v8h-8zM64 144h8v8h-8zM88 144h8v8h-8zM104 144h8v8h-8zM144 144h8v8h-8zM152 144h8v8h-8zM176 144h8v8h-8zM216 144h8v8h-8zM224 144h8v8h-8zM16 152h8v8h-8zM40 152h8v8h-8zM48 152h8v8h-8zM56 152h8v8h-8zM88 152h8v8h-8zM96 152h8v8h-8zM112 152h8v8h-8zM120 152h8v8h-8zM128 152h8v8h-8zM160 152h8v8h-8zM168 152h8v8h-8zM176 152h8v8h-8zM192 152h8v8h-8zM200 152h8v8h-8zM208 152h8v8h-8zM224 152h8v8h-8zM232 152h8v8h-8zM240 152h8v8h-8zM16 160h8v8h-8zM24 160h8v8h-8zM40 160h8v8h-8zM64 160h8v8h-8zM80 160h8v8h-8zM88 160h8v8h-8zM96 160h8v8h-8zM136 160h8v8h-8zM152 160h8v8h-8zM168 160h8v8h-8zM176 160h8v8h-8zM192 160h8v8h-8zM216 160h8v8h-8zM240 160h8v8h-8zM16 168h8v8h-8zM32 168h8v8h-8zM40 168h8v8h-8zM56 168h8v8h-8zM72 168h8v8h-8zM96 168h8v8h-8zM120 168h8v8h-8zM160 168h8v8h-8zM184 168h8v8h-8zM192 168h8v8h-8zM208 168h8v8h-8zM16 176h8v8h-8zM32 176h8v8h-8zM48 176h8v8h-8zM64 176h8v8h-8zM72 176h8v8h-8zM88 176h8v8h-8zM104 176h8v8h-8zM112 176h8v8h-8zM128 176h8v8h-8zM136 176h8v8h-8zM152 176h8v8h-8zM160 176h8v8h-8zM168 176h8v8h-8zM176 176h8v8h-8zM184 176h8v8h-8zM192 176h8v8h-8zM200 176h8v8h-8zM208 176h8v8h-8zM224 176h8v8h-8zM232 176h8v8h-8zM240 176h8v8h-8zM80 184h8v8h-8zM88 184h8v8h-8zM96 184h8v8h-8zM112 184h8v8h-8zM128 184h8v8h-8zM152 184h8v8h-8zM160 184h8v8h-8zM176 184h8v8h-8zM208 184h8v8h-8zM216 184h8v8h-8zM88 192h8v8h-8zM112 192h8v8h-8zM152 192h8v8h-8zM168 192h8v8h-8zM176 192h8v8h-8zM192 192h8v8h-8zM208 192h8v8h-8zM216 192h8v8h-8zM224 192h8v8h-8zM104 200h8v8h-8zM128 200h8v8h-8zM136 200h8v8h-8zM144 200h8v8h-8zM168 200h8v8h-8zM176 200h8v8h-8zM208 200h8v8h-8zM88 208h8v8h-8zM104 208h8v8h-8zM112 208h8v8h-8zM120 208h8v8h-8zM128 208h8v8h-8zM152 208h8v8h-8zM160 208h8v8h-8zM168 208h8v8h-8zM176 208h8v8h-8zM184 208h8v8h-8zM192 208h8v8h-8zM200 208h8v8h-8zM208 208h8v8h-8zM216 208h8v8h-8zM96 216h8v8h-8zM104 216h8v8h-8zM128 216h8v8h-8zM152 216h8v8h-8zM160 216h8v8h-8zM184 216h8v8h-8zM200 216h8v8h-8zM216 216h8v8h-8zM224 216h8v8h-8zM232 216h8v8h-8zM88 224h8v8h-8zM96 224h8v8h-8zM104 224h8v8h-8zM112 224h8v8h-8zM128 224h8v8h-8zM136 224h8v8h-8zM144 224h8v8h-8zM152 224h8v8h-8zM168 224h8v8h-8zM184 224h8v8h-8zM192 224h8v8h-8zM200 224h8v8h-8zM208 224h8v8h-8zM216 224h8v8h-8zM224 224h8v8h-8zM232 224h8v8h-8zM96 232h8v8h-8zM120 232h8v8h-8zM144 232h8v8h-8zM152 232h8v8h-8zM160 232h8v8h-8zM168 232h8v8h-8zM216 232h8v8h-8zM224 232h8v8h-8zM240 232h8v8h-8zM80 240h8v8h-8zM88 240h8v8h-8zM112 240h8v8h-8zM120 240h8v8h-8zM128 240h8v8h-8zM136 240h8v8h-8zM168 240h8v8h-8zM200 240h8v8h-8zM208 240h8v8h-8zM224 240h8v8h-8z" />
<path fill="none" d="M24.4 24.4h39.2v39.2H24.4z" />
<path d="M63.6 16H16v56h56V16h-8.4zm0 47.6H24.4V24.4h39.2v39.2z" />
<path fill="none" d="M200.4 24.4h39.2v39.2h-39.2z" />
<path d="M239.6 16H192v56h56V16h-8.4zm0 47.6h-39.2V24.4h39.2v39.2z" />
<path fill="none" d="M24.4 200.4h39.2v39.2H24.4z" />
<path d="M63.6 192H16v56h56v-56h-8.4zm0 47.6H24.4v-39.2h39.2v39.2zM32 32h24v24H32zM208 32h24v24h-24z" />
<path d="M32 208h24v24H32z" />
</g>
</svg>
